<svg width="100" height="100" viewBox="0 0 100 100" fill="none" xmlns="http://www.w3.org/2000/svg">
    <g clip-path="url(#clip0_1_3853)">
        <path opacity="0.4" d="M49.9965 100C77.5657 100 99.993 77.5727 99.993 50.0035C99.993 42.7555 98.4715 35.7611 95.4779 29.2174C94.6679 27.4495 92.5759 26.6676 90.8079 27.4776C89.04 28.2877 88.2652 30.3797 89.0681 32.1476C91.6391 37.7615 92.9422 43.7698 92.9422 50.0035C92.9422 73.6916 73.6705 92.9563 49.9895 92.9563C42.9316 92.9563 35.9302 91.2094 29.7457 87.8988C28.0341 86.9832 25.8999 87.6241 24.9771 89.3428C24.0614 91.0544 24.7024 93.1887 26.4211 94.1114C33.6198 97.9644 41.7694 100 49.9824 100H49.9965Z" fill="white"/>
        <path opacity="0.4" d="M5.39551 66.6197C5.72656 66.6197 6.05762 66.5704 6.38867 66.4788C8.25526 65.9294 9.32591 63.9713 8.7765 62.1047C7.62837 58.1883 7.04374 54.1171 7.04374 49.9965C7.04374 26.3084 26.3154 7.04374 49.9965 7.04374C55.6385 7.04374 61.1256 8.12143 66.3027 10.2416C68.1059 10.9812 70.1627 10.1219 70.8953 8.31866C71.6348 6.5225 70.7755 4.45869 68.9723 3.72614C62.9499 1.25379 56.5683 0 49.9965 0C22.4273 0 0 22.4273 0 49.9965C0 54.7862 0.676199 59.5337 2.01451 64.091C2.46531 65.6265 3.86701 66.6197 5.39551 66.6197Z" fill="white"/>
        <path opacity="0.6" d="M49.9965 86.1872C63.6825 86.1872 76.0442 78.6082 82.2568 66.4084C83.1373 64.6756 82.454 62.5555 80.7142 61.675C78.9815 60.7945 76.8613 61.4778 75.9808 63.2176C70.9727 73.0436 61.0199 79.1505 49.9965 79.1505C33.9297 79.1505 20.8565 66.0774 20.8565 50.0106C20.8565 42.9739 23.3993 36.1837 28.013 30.8868C29.2879 29.4217 29.1329 27.1959 27.6678 25.921C26.2027 24.6461 23.9769 24.801 22.702 26.2661C16.9754 32.845 13.8198 41.2834 13.8198 50.0176C13.8198 69.9725 30.0556 86.2013 50.0035 86.2013L49.9965 86.1872Z" fill="white"/>
        <path opacity="0.6" d="M82.6654 53.5184C84.6095 53.5184 86.1873 51.9406 86.1873 49.9965C86.1873 30.0416 69.9514 13.8128 50.0036 13.8128C48.0595 13.8128 46.4817 15.3906 46.4817 17.3347C46.4817 19.2787 48.0595 20.8565 50.0036 20.8565C66.0703 20.8565 79.1435 33.9297 79.1435 49.9965C79.1435 51.9406 80.7213 53.5184 82.6654 53.5184Z" fill="white"/>
        <path opacity="0.8" d="M62.4357 66.3872C63.3161 66.3872 64.1966 66.0562 64.8869 65.3941C69.0991 61.3228 71.4165 55.8498 71.4165 49.9964C71.4165 38.1841 61.8088 28.5764 49.9964 28.5764C38.1841 28.5764 28.5764 38.1841 28.5764 49.9964C28.5764 55.7089 30.8022 61.0833 34.8383 65.1264C36.2118 66.4999 38.4447 66.507 39.8182 65.1264C41.1918 63.7458 41.1988 61.52 39.8182 60.1465C37.1064 57.4346 35.6202 53.8282 35.6202 49.9894C35.6202 42.0652 42.0652 35.6131 49.9964 35.6131C57.9277 35.6131 64.3727 42.0581 64.3727 49.9894C64.3727 53.9198 62.816 57.5896 59.9915 60.3226C58.5898 61.675 58.5546 63.9008 59.907 65.3025C60.5973 66.0139 61.52 66.3731 62.4357 66.3731V66.3872Z" fill="white"/>
        <path d="M42.3821 49.9965C42.3821 45.7914 45.7913 42.3822 49.9964 42.3822C54.2015 42.3822 57.6107 45.7914 57.6107 49.9965C57.6107 52.9337 55.9483 55.4765 53.5182 56.7444V63.4923C53.5182 65.4364 51.9404 67.0142 49.9964 67.0142C48.0523 67.0142 46.4745 65.4364 46.4745 63.4923V56.7444C44.0444 55.4695 42.3821 52.9267 42.3821 49.9965Z" fill="white"/>
    </g>
    <defs>
        <clipPath id="clip0_1_3853">
            <rect width="100" height="100" fill="white"/>
        </clipPath>
    </defs>
</svg>
